# xmcd CD database file
#
# Track frame offsets:
#	150
#	17413
#	35696
#	58501
#	77212
#	97943
#	119193
#	141022
#	157554
#	172723
#	190504
#	206316
#	221915
#	236201
#	259053
#	275531
#
# Disc length: 3927 seconds
#
# Revision: 0
# Processed by: cddbd v1.5.2PL0 Copyright (c) Steve Scherf et al.
# Submitted via: CDex 1.70beta3
#
DISCID=d40f5510
DTITLE=Lead - Lead Tracks ～listener’s choice～
DYEAR=2008
DGENRE=VISION FACTORY
TTITLE0=真夏のMagic
TTITLE1=“Show me the way”
TTITLE2=FLY AWAY
TTITLE3=Night Deluxe
TTITLE4=Delighted
TTITLE5=Freedom No Rule
TTITLE6=I believe
TTITLE7=バージンブルー
TTITLE8=Summer Madness
TTITLE9=ONE
TTITLE10=Drive Alive
TTITLE11=GET DIZZY
TTITLE12=Baby what turns you on
TTITLE13=TOKIO NIGHT
TTITLE14=Wicked Wicked SUMMER PARTY
TTITLE15=Sunnyday
EXTD=YEAR: 2008
EXTT0=
EXTT1=
EXTT2=
EXTT3=
EXTT4=
EXTT5=
EXTT6=
EXTT7=
EXTT8=
EXTT9=
EXTT10=
EXTT11=
EXTT12=
EXTT13=
EXTT14=
EXTT15=
PLAYORDER=
